<svg viewBox="0 0 80 80" fill="none" xmlns="http://www.w3.org/2000/svg">
  <rect width="80" height="80" rx="16" fill="#0a0e14"/>
  <path d="M 52,40 Q 61,45 70,40" stroke="#3fb950" stroke-width="2.5" stroke-linecap="round"/>
  <path d="M 48.5,48.5 Q 54,60 61.2,61.2" stroke="#388bfd" stroke-width="2.5" stroke-linecap="round"/>
  <path d="M 40,52 Q 34,62 40,70" stroke="#388bfd" stroke-width="2.5" stroke-linecap="round"/>
  <path d="M 31.5,48.5 Q 19,52 18.8,61.2" stroke="#388bfd" stroke-width="2.5" stroke-linecap="round"/>
  <path d="M 28,40 Q 18,34 10,40" stroke="#388bfd" stroke-width="2.5" stroke-linecap="round"/>
  <path d="M 31.5,31.5 Q 28,19 18.8,18.8" stroke="#388bfd" stroke-width="2.5" stroke-linecap="round"/>
  <path d="M 40,28 Q 46,18 40,10" stroke="#388bfd" stroke-width="2.5" stroke-linecap="round"/>
  <path d="M 48.5,31.5 Q 60,28 61.2,18.8" stroke="#388bfd" stroke-width="2.5" stroke-linecap="round"/>
  <circle cx="70" cy="40" r="3" fill="#3fb950"/>
  <circle cx="61.2" cy="61.2" r="2.8" fill="#388bfd"/>
  <circle cx="40" cy="70" r="2.8" fill="#388bfd"/>
  <circle cx="18.8" cy="61.2" r="2.8" fill="#388bfd"/>
  <circle cx="10" cy="40" r="2.8" fill="#388bfd"/>
  <circle cx="18.8" cy="18.8" r="2.8" fill="#388bfd"/>
  <circle cx="40" cy="10" r="2.8" fill="#388bfd"/>
  <circle cx="61.2" cy="18.8" r="2.8" fill="#388bfd"/>
  <circle cx="40" cy="40" r="12.5" fill="#0a0e14" stroke="#388bfd" stroke-width="3"/>
  <circle cx="40" cy="40" r="3.5" fill="#388bfd"/>
</svg>
